<mxfile host="Electron" modified="2024-12-20T00:52:32.846Z" agent="Mozilla/5.0 (Windows NT 10.0; Win64; x64) AppleWebKit/537.36 (KHTML, like Gecko) draw.io/24.0.4 Chrome/120.0.6099.109 Electron/28.1.0 Safari/537.36" etag="JS_9-h7azd7G90QusoHz" version="24.0.4" type="device">
  <diagram name="Page-1" id="KzT64n4qKognl3vEWksE">
    <mxGraphModel dx="1050" dy="669" grid="1" gridSize="10" guides="1" tooltips="1" connect="1" arrows="1" fold="1" page="1" pageScale="1" pageWidth="850" pageHeight="1100" math="0" shadow="0">
      <root>
        <mxCell id="0" />
        <mxCell id="1" parent="0" />
        <mxCell id="y-cUxIOixDBZ1llP2Dbh-1" value="0" style="swimlane;fontStyle=0;childLayout=stackLayout;horizontal=1;startSize=20;fillColor=#050505;horizontalStack=0;resizeParent=1;resizeParentMax=0;resizeLast=0;collapsible=0;marginBottom=0;swimlaneFillColor=#333333;strokeColor=#333333;" vertex="1" parent="1">
          <mxGeometry x="380" y="240" width="145" height="50" as="geometry" />
        </mxCell>
        <mxCell id="y-cUxIOixDBZ1llP2Dbh-2" value="Gym mangment System" style="text;html=1;align=center;verticalAlign=middle;resizable=0;points=[];autosize=1;strokeColor=none;fillColor=none;" vertex="1" parent="y-cUxIOixDBZ1llP2Dbh-1">
          <mxGeometry y="20" width="145" height="30" as="geometry" />
        </mxCell>
        <mxCell id="y-cUxIOixDBZ1llP2Dbh-10" style="edgeStyle=orthogonalEdgeStyle;rounded=0;orthogonalLoop=1;jettySize=auto;html=1;exitX=0;exitY=0;exitDx=100;exitDy=55;exitPerimeter=0;entryX=0;entryY=0.5;entryDx=0;entryDy=0;" edge="1" parent="1" source="y-cUxIOixDBZ1llP2Dbh-5" target="y-cUxIOixDBZ1llP2Dbh-1">
          <mxGeometry relative="1" as="geometry" />
        </mxCell>
        <mxCell id="y-cUxIOixDBZ1llP2Dbh-11" value="Send self data&amp;nbsp;" style="edgeLabel;html=1;align=center;verticalAlign=middle;resizable=0;points=[];" vertex="1" connectable="0" parent="y-cUxIOixDBZ1llP2Dbh-10">
          <mxGeometry x="-0.205" relative="1" as="geometry">
            <mxPoint as="offset" />
          </mxGeometry>
        </mxCell>
        <mxCell id="y-cUxIOixDBZ1llP2Dbh-12" style="edgeStyle=orthogonalEdgeStyle;rounded=0;orthogonalLoop=1;jettySize=auto;html=1;exitX=0;exitY=0;exitDx=100;exitDy=10;exitPerimeter=0;entryX=0;entryY=0;entryDx=0;entryDy=0;" edge="1" parent="1" source="y-cUxIOixDBZ1llP2Dbh-5" target="y-cUxIOixDBZ1llP2Dbh-1">
          <mxGeometry relative="1" as="geometry" />
        </mxCell>
        <mxCell id="y-cUxIOixDBZ1llP2Dbh-13" value="Pay" style="edgeLabel;html=1;align=center;verticalAlign=middle;resizable=0;points=[];" vertex="1" connectable="0" parent="y-cUxIOixDBZ1llP2Dbh-12">
          <mxGeometry x="-0.2933" y="1" relative="1" as="geometry">
            <mxPoint as="offset" />
          </mxGeometry>
        </mxCell>
        <mxCell id="y-cUxIOixDBZ1llP2Dbh-5" value="&#xa;&lt;span style=&quot;color: rgb(240, 240, 240); font-family: Helvetica; font-size: 12px; font-style: normal; font-variant-ligatures: normal; font-variant-caps: normal; font-weight: 400; letter-spacing: normal; orphans: 2; text-align: center; text-indent: 0px; text-transform: none; widows: 2; word-spacing: 0px; -webkit-text-stroke-width: 0px; white-space: normal; background-color: rgb(27, 29, 30); text-decoration-thickness: initial; text-decoration-style: initial; text-decoration-color: initial; display: inline !important; float: none;&quot;&gt;&amp;nbsp;User&lt;/span&gt;&#xa;&#xa;" style="html=1;dashed=0;whiteSpace=wrap;shape=mxgraph.dfd.externalEntity" vertex="1" parent="1">
          <mxGeometry x="120" y="210" width="100" height="100" as="geometry" />
        </mxCell>
        <mxCell id="y-cUxIOixDBZ1llP2Dbh-6" value="Id" style="autosize=1;part=1;resizable=0;strokeColor=inherit;fillColor=inherit;gradientColor=inherit;" vertex="1" parent="y-cUxIOixDBZ1llP2Dbh-5">
          <mxGeometry width="20" height="20" relative="1" as="geometry">
            <mxPoint x="15" y="15" as="offset" />
          </mxGeometry>
        </mxCell>
        <mxCell id="y-cUxIOixDBZ1llP2Dbh-21" style="edgeStyle=orthogonalEdgeStyle;rounded=0;orthogonalLoop=1;jettySize=auto;html=1;exitX=0;exitY=0;exitDx=45;exitDy=0;exitPerimeter=0;entryX=0.5;entryY=0;entryDx=0;entryDy=0;" edge="1" parent="1" source="y-cUxIOixDBZ1llP2Dbh-7" target="y-cUxIOixDBZ1llP2Dbh-1">
          <mxGeometry relative="1" as="geometry">
            <Array as="points">
              <mxPoint x="865" y="30" />
              <mxPoint x="453" y="30" />
            </Array>
          </mxGeometry>
        </mxCell>
        <mxCell id="y-cUxIOixDBZ1llP2Dbh-22" value="Log in" style="edgeLabel;html=1;align=center;verticalAlign=middle;resizable=0;points=[];" vertex="1" connectable="0" parent="y-cUxIOixDBZ1llP2Dbh-21">
          <mxGeometry x="-0.2747" y="2" relative="1" as="geometry">
            <mxPoint as="offset" />
          </mxGeometry>
        </mxCell>
        <mxCell id="y-cUxIOixDBZ1llP2Dbh-46" style="edgeStyle=orthogonalEdgeStyle;rounded=0;orthogonalLoop=1;jettySize=auto;html=1;exitX=0;exitY=0;exitDx=0;exitDy=72.5;exitPerimeter=0;entryX=1;entryY=0;entryDx=0;entryDy=0;" edge="1" parent="1" source="y-cUxIOixDBZ1llP2Dbh-7" target="y-cUxIOixDBZ1llP2Dbh-1">
          <mxGeometry relative="1" as="geometry" />
        </mxCell>
        <mxCell id="y-cUxIOixDBZ1llP2Dbh-48" value="Add New user" style="edgeLabel;html=1;align=center;verticalAlign=middle;resizable=0;points=[];" vertex="1" connectable="0" parent="y-cUxIOixDBZ1llP2Dbh-46">
          <mxGeometry x="-0.1774" y="-1" relative="1" as="geometry">
            <mxPoint as="offset" />
          </mxGeometry>
        </mxCell>
        <mxCell id="y-cUxIOixDBZ1llP2Dbh-49" style="edgeStyle=orthogonalEdgeStyle;rounded=0;orthogonalLoop=1;jettySize=auto;html=1;exitX=0;exitY=0;exitDx=0;exitDy=145;exitPerimeter=0;entryX=1;entryY=0.25;entryDx=0;entryDy=0;" edge="1" parent="1" source="y-cUxIOixDBZ1llP2Dbh-7" target="y-cUxIOixDBZ1llP2Dbh-1">
          <mxGeometry relative="1" as="geometry" />
        </mxCell>
        <mxCell id="y-cUxIOixDBZ1llP2Dbh-50" value="Mange Classes" style="edgeLabel;html=1;align=center;verticalAlign=middle;resizable=0;points=[];" vertex="1" connectable="0" parent="y-cUxIOixDBZ1llP2Dbh-49">
          <mxGeometry x="-0.4394" y="1" relative="1" as="geometry">
            <mxPoint as="offset" />
          </mxGeometry>
        </mxCell>
        <mxCell id="y-cUxIOixDBZ1llP2Dbh-51" style="edgeStyle=orthogonalEdgeStyle;rounded=0;orthogonalLoop=1;jettySize=auto;html=1;exitX=0;exitY=0;exitDx=0;exitDy=217.5;exitPerimeter=0;entryX=1;entryY=0.5;entryDx=0;entryDy=0;" edge="1" parent="1" source="y-cUxIOixDBZ1llP2Dbh-7" target="y-cUxIOixDBZ1llP2Dbh-1">
          <mxGeometry relative="1" as="geometry" />
        </mxCell>
        <mxCell id="y-cUxIOixDBZ1llP2Dbh-52" value="mange payment" style="edgeLabel;html=1;align=center;verticalAlign=middle;resizable=0;points=[];" vertex="1" connectable="0" parent="y-cUxIOixDBZ1llP2Dbh-51">
          <mxGeometry x="-0.5224" y="2" relative="1" as="geometry">
            <mxPoint as="offset" />
          </mxGeometry>
        </mxCell>
        <mxCell id="y-cUxIOixDBZ1llP2Dbh-53" style="edgeStyle=orthogonalEdgeStyle;rounded=0;orthogonalLoop=1;jettySize=auto;html=1;exitX=0;exitY=0;exitDx=0;exitDy=290;exitPerimeter=0;entryX=1;entryY=1;entryDx=0;entryDy=0;" edge="1" parent="1" source="y-cUxIOixDBZ1llP2Dbh-7" target="y-cUxIOixDBZ1llP2Dbh-1">
          <mxGeometry relative="1" as="geometry">
            <Array as="points">
              <mxPoint x="660" y="380" />
              <mxPoint x="660" y="290" />
            </Array>
          </mxGeometry>
        </mxCell>
        <mxCell id="y-cUxIOixDBZ1llP2Dbh-55" value="Mange Coaches" style="edgeLabel;html=1;align=center;verticalAlign=middle;resizable=0;points=[];" vertex="1" connectable="0" parent="y-cUxIOixDBZ1llP2Dbh-53">
          <mxGeometry x="-0.6332" relative="1" as="geometry">
            <mxPoint as="offset" />
          </mxGeometry>
        </mxCell>
        <mxCell id="y-cUxIOixDBZ1llP2Dbh-56" style="edgeStyle=orthogonalEdgeStyle;rounded=0;orthogonalLoop=1;jettySize=auto;html=1;exitX=0;exitY=0;exitDx=32.5;exitDy=300;exitPerimeter=0;entryX=0.75;entryY=1;entryDx=0;entryDy=0;" edge="1" parent="1" source="y-cUxIOixDBZ1llP2Dbh-7" target="y-cUxIOixDBZ1llP2Dbh-1">
          <mxGeometry relative="1" as="geometry" />
        </mxCell>
        <mxCell id="y-cUxIOixDBZ1llP2Dbh-57" value="Follow up on repair workers" style="edgeLabel;html=1;align=center;verticalAlign=middle;resizable=0;points=[];" vertex="1" connectable="0" parent="y-cUxIOixDBZ1llP2Dbh-56">
          <mxGeometry x="-0.1181" y="-4" relative="1" as="geometry">
            <mxPoint as="offset" />
          </mxGeometry>
        </mxCell>
        <mxCell id="y-cUxIOixDBZ1llP2Dbh-7" value="&#xa;&lt;span style=&quot;color: rgb(240, 240, 240); font-family: Helvetica; font-size: 12px; font-style: normal; font-variant-ligatures: normal; font-variant-caps: normal; font-weight: 400; letter-spacing: normal; orphans: 2; text-align: center; text-indent: 0px; text-transform: none; widows: 2; word-spacing: 0px; -webkit-text-stroke-width: 0px; white-space: normal; background-color: rgb(27, 29, 30); text-decoration-thickness: initial; text-decoration-style: initial; text-decoration-color: initial; display: inline !important; float: none;&quot;&gt;Receptionst&lt;/span&gt;&#xa;&#xa;" style="html=1;dashed=0;whiteSpace=wrap;shape=mxgraph.dfd.externalEntity" vertex="1" parent="1">
          <mxGeometry x="820" y="90" width="100" height="300" as="geometry" />
        </mxCell>
        <mxCell id="y-cUxIOixDBZ1llP2Dbh-8" value="Id" style="autosize=1;part=1;resizable=0;strokeColor=inherit;fillColor=inherit;gradientColor=inherit;" vertex="1" parent="y-cUxIOixDBZ1llP2Dbh-7">
          <mxGeometry width="20" height="20" relative="1" as="geometry">
            <mxPoint x="15" y="15" as="offset" />
          </mxGeometry>
        </mxCell>
        <mxCell id="y-cUxIOixDBZ1llP2Dbh-30" style="edgeStyle=orthogonalEdgeStyle;rounded=0;orthogonalLoop=1;jettySize=auto;html=1;exitX=0.75;exitY=0;exitDx=0;exitDy=0;entryX=0;entryY=0;entryDx=0;entryDy=0;entryPerimeter=0;" edge="1" parent="1" source="y-cUxIOixDBZ1llP2Dbh-1" target="y-cUxIOixDBZ1llP2Dbh-7">
          <mxGeometry relative="1" as="geometry" />
        </mxCell>
        <mxCell id="y-cUxIOixDBZ1llP2Dbh-31" value="Register&amp;nbsp; user information" style="edgeLabel;html=1;align=center;verticalAlign=middle;resizable=0;points=[];" vertex="1" connectable="0" parent="y-cUxIOixDBZ1llP2Dbh-30">
          <mxGeometry x="0.2425" y="4" relative="1" as="geometry">
            <mxPoint as="offset" />
          </mxGeometry>
        </mxCell>
      </root>
    </mxGraphModel>
  </diagram>
</mxfile>
